STARTFONT 2.1
FONT -FontForge-pixelclockheading-Medium-R-Normal--12-120-75-75-P-76-ISO8859-1
SIZE 12 75 75
FONTBOUNDINGBOX 6 11 0 -2
COMMENT "Generated by fontforge, http://fontforge.sourceforge.net"
COMMENT "Copyright 2017 IBM Corp. All rights reserved."
STARTPROPERTIES 31
FOUNDRY "FontForge"
FAMILY_NAME "pixelclockheading"
WEIGHT_NAME "Medium"
SLANT "R"
SETWIDTH_NAME "Normal"
ADD_STYLE_NAME ""
PIXEL_SIZE 12
POINT_SIZE 120
RESOLUTION_X 75
RESOLUTION_Y 75
SPACING "P"
AVERAGE_WIDTH 76
CHARSET_REGISTRY "ISO8859"
CHARSET_ENCODING "1"
FONTNAME_REGISTRY ""
CHARSET_COLLECTIONS "ISOLatin1Encoding"
FONT_NAME "pixelclock-heading"
FACE_NAME "IBM Plex Mono Medium"
COPYRIGHT "Copyright 2017 IBM Corp. All rights reserved."
FONT_VERSION "001.000"
FONT_ASCENT 9
FONT_DESCENT 3
UNDERLINE_POSITION 0
UNDERLINE_THICKNESS 1
X_HEIGHT 2
CAP_HEIGHT 2
RAW_ASCENT 791
RAW_DESCENT 209
NORM_SPACE 3
AVG_LOWERCASE_WIDTH 80
AVG_UPPERCASE_WIDTH 76
ENDPROPERTIES
CHARS 97
STARTCHAR .null.dup1
ENCODING 0
SWIDTH 0 0
DWIDTH 0 0
BBX 1 1 0 0
BITMAP
00
ENDCHAR
STARTCHAR uni000D
ENCODING 13
SWIDTH 600 0
DWIDTH 8 0
BBX 1 1 0 0
BITMAP
00
ENDCHAR
STARTCHAR space
ENCODING 32
SWIDTH 208 0
DWIDTH 3 0
BBX 1 1 0 0
BITMAP
00
ENDCHAR
STARTCHAR exclam
ENCODING 33
SWIDTH 600 0
DWIDTH 8 0
BBX 2 3 0 0
BITMAP
C0
C0
80
ENDCHAR
STARTCHAR quotedbl
ENCODING 34
SWIDTH 600 0
DWIDTH 8 0
BBX 2 3 0 0
BITMAP
C0
C0
80
ENDCHAR
STARTCHAR numbersign
ENCODING 35
SWIDTH 600 0
DWIDTH 8 0
BBX 2 3 0 0
BITMAP
C0
C0
80
ENDCHAR
STARTCHAR dollar
ENCODING 36
SWIDTH 600 0
DWIDTH 8 0
BBX 2 3 0 0
BITMAP
C0
C0
80
ENDCHAR
STARTCHAR percent
ENCODING 37
SWIDTH 600 0
DWIDTH 8 0
BBX 2 3 0 0
BITMAP
C0
C0
80
ENDCHAR
STARTCHAR ampersand
ENCODING 38
SWIDTH 600 0
DWIDTH 8 0
BBX 2 3 0 0
BITMAP
C0
C0
80
ENDCHAR
STARTCHAR quotesingle
ENCODING 39
SWIDTH 600 0
DWIDTH 8 0
BBX 2 3 0 0
BITMAP
C0
C0
80
ENDCHAR
STARTCHAR parenleft
ENCODING 40
SWIDTH 600 0
DWIDTH 8 0
BBX 2 3 0 0
BITMAP
C0
C0
80
ENDCHAR
STARTCHAR parenright
ENCODING 41
SWIDTH 600 0
DWIDTH 8 0
BBX 2 3 0 0
BITMAP
C0
C0
80
ENDCHAR
STARTCHAR asterisk
ENCODING 42
SWIDTH 600 0
DWIDTH 8 0
BBX 3 3 0 4
BITMAP
E0
E0
40
ENDCHAR
STARTCHAR plus
ENCODING 43
SWIDTH 600 0
DWIDTH 8 0
BBX 2 3 0 0
BITMAP
C0
C0
80
ENDCHAR
STARTCHAR comma
ENCODING 44
SWIDTH 600 0
DWIDTH 8 0
BBX 2 3 0 0
BITMAP
C0
C0
80
ENDCHAR
STARTCHAR hyphen
ENCODING 45
SWIDTH 600 0
DWIDTH 8 0
BBX 2 3 0 0
BITMAP
C0
C0
80
ENDCHAR
STARTCHAR period
ENCODING 46
SWIDTH 600 0
DWIDTH 8 0
BBX 2 3 0 0
BITMAP
C0
C0
80
ENDCHAR
STARTCHAR slash
ENCODING 47
SWIDTH 600 0
DWIDTH 8 0
BBX 5 11 1 -2
BITMAP
08
18
10
30
30
20
60
40
40
C0
80
ENDCHAR
STARTCHAR zero
ENCODING 48
SWIDTH 583 0
DWIDTH 7 0
BBX 5 9 0 0
BITMAP
F8
D8
D8
D8
D8
D8
D8
D8
F8
ENDCHAR
STARTCHAR one
ENCODING 49
SWIDTH 375 0
DWIDTH 7 0
BBX 3 9 2 0
BITMAP
E0
60
60
60
60
60
60
60
60
ENDCHAR
STARTCHAR two
ENCODING 50
SWIDTH 375 0
DWIDTH 7 0
BBX 5 9 0 0
BITMAP
F8
18
18
18
F8
C0
C0
C0
F8
ENDCHAR
STARTCHAR three
ENCODING 51
SWIDTH 375 0
DWIDTH 7 0
BBX 5 9 0 0
BITMAP
F8
18
18
18
F8
18
18
18
F8
ENDCHAR
STARTCHAR four
ENCODING 52
SWIDTH 375 0
DWIDTH 7 0
BBX 5 9 0 0
BITMAP
D8
D8
D8
D8
F8
18
18
18
18
ENDCHAR
STARTCHAR five
ENCODING 53
SWIDTH 375 0
DWIDTH 7 0
BBX 5 9 0 0
BITMAP
F8
C0
C0
C0
F8
18
18
18
F8
ENDCHAR
STARTCHAR six
ENCODING 54
SWIDTH 375 0
DWIDTH 7 0
BBX 5 9 0 0
BITMAP
F8
C0
C0
C0
F8
D8
D8
D8
F8
ENDCHAR
STARTCHAR seven
ENCODING 55
SWIDTH 375 0
DWIDTH 7 0
BBX 5 9 0 0
BITMAP
F8
18
18
18
18
18
18
18
18
ENDCHAR
STARTCHAR eight
ENCODING 56
SWIDTH 375 0
DWIDTH 7 0
BBX 5 9 0 0
BITMAP
F8
D8
D8
D8
F8
D8
D8
D8
F8
ENDCHAR
STARTCHAR nine
ENCODING 57
SWIDTH 375 0
DWIDTH 7 0
BBX 5 9 0 0
BITMAP
F8
D8
D8
D8
F8
18
18
18
18
ENDCHAR
STARTCHAR colon
ENCODING 58
SWIDTH 208 0
DWIDTH 3 0
BBX 2 5 0 1
BITMAP
C0
80
00
C0
80
ENDCHAR
STARTCHAR semicolon
ENCODING 59
SWIDTH 600 0
DWIDTH 8 0
BBX 2 3 0 0
BITMAP
C0
C0
80
ENDCHAR
STARTCHAR less
ENCODING 60
SWIDTH 600 0
DWIDTH 8 0
BBX 2 3 0 0
BITMAP
C0
C0
80
ENDCHAR
STARTCHAR equal
ENCODING 61
SWIDTH 600 0
DWIDTH 8 0
BBX 2 3 0 0
BITMAP
C0
C0
80
ENDCHAR
STARTCHAR greater
ENCODING 62
SWIDTH 600 0
DWIDTH 8 0
BBX 2 3 0 0
BITMAP
C0
C0
80
ENDCHAR
STARTCHAR question
ENCODING 63
SWIDTH 600 0
DWIDTH 8 0
BBX 2 3 0 0
BITMAP
C0
C0
80
ENDCHAR
STARTCHAR at
ENCODING 64
SWIDTH 600 0
DWIDTH 8 0
BBX 4 4 0 4
BITMAP
60
F0
E0
40
ENDCHAR
STARTCHAR A
ENCODING 65
SWIDTH 208 0
DWIDTH 3 0
BBX 2 2 0 5
BITMAP
C0
C0
ENDCHAR
STARTCHAR B
ENCODING 66
SWIDTH 600 0
DWIDTH 8 0
BBX 2 3 0 0
BITMAP
C0
C0
80
ENDCHAR
STARTCHAR C
ENCODING 67
SWIDTH 600 0
DWIDTH 8 0
BBX 2 3 0 0
BITMAP
C0
C0
80
ENDCHAR
STARTCHAR D
ENCODING 68
SWIDTH 600 0
DWIDTH 8 0
BBX 2 3 0 0
BITMAP
C0
C0
80
ENDCHAR
STARTCHAR E
ENCODING 69
SWIDTH 600 0
DWIDTH 8 0
BBX 2 3 0 0
BITMAP
C0
C0
80
ENDCHAR
STARTCHAR F
ENCODING 70
SWIDTH 600 0
DWIDTH 8 0
BBX 2 3 0 0
BITMAP
C0
C0
80
ENDCHAR
STARTCHAR G
ENCODING 71
SWIDTH 600 0
DWIDTH 8 0
BBX 2 3 0 0
BITMAP
C0
C0
80
ENDCHAR
STARTCHAR H
ENCODING 72
SWIDTH 600 0
DWIDTH 8 0
BBX 2 3 0 0
BITMAP
C0
C0
80
ENDCHAR
STARTCHAR I
ENCODING 73
SWIDTH 600 0
DWIDTH 8 0
BBX 2 3 0 0
BITMAP
C0
C0
80
ENDCHAR
STARTCHAR J
ENCODING 74
SWIDTH 600 0
DWIDTH 8 0
BBX 2 3 0 0
BITMAP
C0
C0
80
ENDCHAR
STARTCHAR K
ENCODING 75
SWIDTH 600 0
DWIDTH 8 0
BBX 2 3 0 0
BITMAP
C0
C0
80
ENDCHAR
STARTCHAR L
ENCODING 76
SWIDTH 600 0
DWIDTH 8 0
BBX 2 3 0 0
BITMAP
C0
C0
80
ENDCHAR
STARTCHAR M
ENCODING 77
SWIDTH 600 0
DWIDTH 8 0
BBX 3 2 0 5
BITMAP
E0
E0
ENDCHAR
STARTCHAR N
ENCODING 78
SWIDTH 600 0
DWIDTH 8 0
BBX 2 3 0 0
BITMAP
C0
C0
80
ENDCHAR
STARTCHAR O
ENCODING 79
SWIDTH 291 0
DWIDTH 4 0
BBX 4 4 0 4
BITMAP
60
F0
E0
40
ENDCHAR
STARTCHAR P
ENCODING 80
SWIDTH 600 0
DWIDTH 8 0
BBX 2 2 0 5
BITMAP
C0
C0
ENDCHAR
STARTCHAR Q
ENCODING 81
SWIDTH 600 0
DWIDTH 8 0
BBX 3 3 0 4
BITMAP
E0
E0
40
ENDCHAR
STARTCHAR R
ENCODING 82
SWIDTH 600 0
DWIDTH 8 0
BBX 2 3 0 0
BITMAP
C0
C0
80
ENDCHAR
STARTCHAR S
ENCODING 83
SWIDTH 600 0
DWIDTH 8 0
BBX 2 3 0 0
BITMAP
C0
C0
80
ENDCHAR
STARTCHAR T
ENCODING 84
SWIDTH 600 0
DWIDTH 8 0
BBX 2 3 0 0
BITMAP
C0
C0
80
ENDCHAR
STARTCHAR U
ENCODING 85
SWIDTH 600 0
DWIDTH 8 0
BBX 2 3 0 0
BITMAP
C0
C0
80
ENDCHAR
STARTCHAR V
ENCODING 86
SWIDTH 600 0
DWIDTH 8 0
BBX 2 3 0 0
BITMAP
C0
C0
80
ENDCHAR
STARTCHAR W
ENCODING 87
SWIDTH 600 0
DWIDTH 8 0
BBX 2 3 0 0
BITMAP
C0
C0
80
ENDCHAR
STARTCHAR X
ENCODING 88
SWIDTH 600 0
DWIDTH 8 0
BBX 2 3 0 0
BITMAP
C0
C0
80
ENDCHAR
STARTCHAR Y
ENCODING 89
SWIDTH 600 0
DWIDTH 8 0
BBX 2 3 0 0
BITMAP
C0
C0
80
ENDCHAR
STARTCHAR Z
ENCODING 90
SWIDTH 600 0
DWIDTH 8 0
BBX 2 3 0 0
BITMAP
C0
C0
80
ENDCHAR
STARTCHAR bracketleft
ENCODING 91
SWIDTH 600 0
DWIDTH 8 0
BBX 2 3 0 0
BITMAP
C0
C0
80
ENDCHAR
STARTCHAR backslash
ENCODING 92
SWIDTH 600 0
DWIDTH 8 0
BBX 2 3 0 0
BITMAP
C0
C0
80
ENDCHAR
STARTCHAR bracketright
ENCODING 93
SWIDTH 600 0
DWIDTH 8 0
BBX 2 3 0 0
BITMAP
C0
C0
80
ENDCHAR
STARTCHAR asciicircum
ENCODING 94
SWIDTH 600 0
DWIDTH 8 0
BBX 2 3 0 0
BITMAP
C0
C0
80
ENDCHAR
STARTCHAR underscore
ENCODING 95
SWIDTH 541 0
DWIDTH 7 0
BBX 6 1 0 -2
BITMAP
FC
ENDCHAR
STARTCHAR grave
ENCODING 96
SWIDTH 600 0
DWIDTH 8 0
BBX 2 3 0 0
BITMAP
C0
C0
80
ENDCHAR
STARTCHAR a
ENCODING 97
SWIDTH 600 0
DWIDTH 8 0
BBX 2 3 0 0
BITMAP
C0
C0
80
ENDCHAR
STARTCHAR b
ENCODING 98
SWIDTH 600 0
DWIDTH 8 0
BBX 2 3 0 0
BITMAP
C0
C0
80
ENDCHAR
STARTCHAR c
ENCODING 99
SWIDTH 600 0
DWIDTH 8 0
BBX 2 3 0 0
BITMAP
C0
C0
80
ENDCHAR
STARTCHAR d
ENCODING 100
SWIDTH 600 0
DWIDTH 8 0
BBX 2 3 0 0
BITMAP
C0
C0
80
ENDCHAR
STARTCHAR e
ENCODING 101
SWIDTH 600 0
DWIDTH 8 0
BBX 2 3 0 0
BITMAP
C0
C0
80
ENDCHAR
STARTCHAR f
ENCODING 102
SWIDTH 600 0
DWIDTH 8 0
BBX 2 3 0 0
BITMAP
C0
C0
80
ENDCHAR
STARTCHAR g
ENCODING 103
SWIDTH 600 0
DWIDTH 8 0
BBX 2 3 0 0
BITMAP
C0
C0
80
ENDCHAR
STARTCHAR h
ENCODING 104
SWIDTH 600 0
DWIDTH 8 0
BBX 2 3 0 0
BITMAP
C0
C0
80
ENDCHAR
STARTCHAR i
ENCODING 105
SWIDTH 600 0
DWIDTH 8 0
BBX 2 3 0 0
BITMAP
C0
C0
80
ENDCHAR
STARTCHAR j
ENCODING 106
SWIDTH 600 0
DWIDTH 8 0
BBX 2 3 0 0
BITMAP
C0
C0
80
ENDCHAR
STARTCHAR k
ENCODING 107
SWIDTH 600 0
DWIDTH 8 0
BBX 2 3 0 0
BITMAP
C0
C0
80
ENDCHAR
STARTCHAR l
ENCODING 108
SWIDTH 600 0
DWIDTH 8 0
BBX 2 3 0 0
BITMAP
C0
C0
80
ENDCHAR
STARTCHAR m
ENCODING 109
SWIDTH 600 0
DWIDTH 8 0
BBX 2 3 0 0
BITMAP
C0
C0
80
ENDCHAR
STARTCHAR n
ENCODING 110
SWIDTH 600 0
DWIDTH 8 0
BBX 2 3 0 0
BITMAP
C0
C0
80
ENDCHAR
STARTCHAR o
ENCODING 111
SWIDTH 600 0
DWIDTH 8 0
BBX 2 3 0 0
BITMAP
C0
C0
80
ENDCHAR
STARTCHAR p
ENCODING 112
SWIDTH 600 0
DWIDTH 8 0
BBX 2 3 0 0
BITMAP
C0
C0
80
ENDCHAR
STARTCHAR q
ENCODING 113
SWIDTH 600 0
DWIDTH 8 0
BBX 2 3 0 0
BITMAP
C0
C0
80
ENDCHAR
STARTCHAR r
ENCODING 114
SWIDTH 600 0
DWIDTH 8 0
BBX 2 3 0 0
BITMAP
C0
C0
80
ENDCHAR
STARTCHAR s
ENCODING 115
SWIDTH 600 0
DWIDTH 8 0
BBX 2 3 0 0
BITMAP
C0
C0
80
ENDCHAR
STARTCHAR t
ENCODING 116
SWIDTH 600 0
DWIDTH 8 0
BBX 2 3 0 0
BITMAP
C0
C0
80
ENDCHAR
STARTCHAR u
ENCODING 117
SWIDTH 600 0
DWIDTH 8 0
BBX 2 3 0 0
BITMAP
C0
C0
80
ENDCHAR
STARTCHAR v
ENCODING 118
SWIDTH 600 0
DWIDTH 8 0
BBX 2 3 0 0
BITMAP
C0
C0
80
ENDCHAR
STARTCHAR w
ENCODING 119
SWIDTH 600 0
DWIDTH 8 0
BBX 2 3 0 0
BITMAP
C0
C0
80
ENDCHAR
STARTCHAR x
ENCODING 120
SWIDTH 600 0
DWIDTH 8 0
BBX 2 3 0 0
BITMAP
C0
C0
80
ENDCHAR
STARTCHAR y
ENCODING 121
SWIDTH 600 0
DWIDTH 8 0
BBX 2 3 0 0
BITMAP
C0
C0
80
ENDCHAR
STARTCHAR z
ENCODING 122
SWIDTH 600 0
DWIDTH 8 0
BBX 2 3 0 0
BITMAP
C0
C0
80
ENDCHAR
STARTCHAR braceleft
ENCODING 123
SWIDTH 600 0
DWIDTH 8 0
BBX 2 3 0 0
BITMAP
C0
C0
80
ENDCHAR
STARTCHAR bar
ENCODING 124
SWIDTH 600 0
DWIDTH 8 0
BBX 2 3 0 0
BITMAP
C0
C0
80
ENDCHAR
STARTCHAR braceright
ENCODING 125
SWIDTH 600 0
DWIDTH 8 0
BBX 2 3 0 0
BITMAP
C0
C0
80
ENDCHAR
STARTCHAR asciitilde
ENCODING 126
SWIDTH 600 0
DWIDTH 8 0
BBX 2 3 0 0
BITMAP
C0
C0
80
ENDCHAR
ENDFONT
